<?xml version="1.0" encoding="UTF-8"?>
<svg id="Layer_1" data-name="Layer 1" xmlns="http://www.w3.org/2000/svg" viewBox="0 0 820.75 500">
  <defs>
    <style>
      .cls-1 {
        fill: #f7f7f7;
      }
    </style>
  </defs>
  <path class="cls-1" d="M643.52,255.07v-65.28h13.24v54.23h30.68v11.05h-43.91Z"/>
  <path class="cls-1" d="M690.26,255.07l22.73-65.28h13.69l23.01,65.28h-13.79l-4.38-13.88h-23.56l-4.29,13.88h-13.42ZM716.92,212.25l-5.84,18.81h17.26l-5.84-18.81-2.65-10.04h-.18c-1.1,4.38-2.01,7.73-2.74,10.04Z"/>
  <path class="cls-1" d="M755.18,255.07v-65.28h29.21c7,0,12.27,1.58,15.8,4.75,3.47,3.1,5.2,7.18,5.2,12.23,0,6.39-3.41,10.74-10.23,13.06v.27c3.65,1.09,6.59,3.07,8.81,5.93,2.22,2.86,3.33,6.27,3.33,10.23,0,5.78-1.92,10.32-5.75,13.6-3.96,3.47-9.43,5.2-16.43,5.2h-29.95ZM768.42,216.08h14.33c2.92,0,5.26-.69,7.03-2.06,1.76-1.37,2.65-3.3,2.65-5.8s-.84-4.32-2.51-5.66c-1.67-1.34-3.97-2.01-6.89-2.01h-14.61v15.52ZM768.42,225.85v18.26h15.25c3.16,0,5.66-.81,7.49-2.42,1.83-1.61,2.74-3.76,2.74-6.44,0-2.98-.99-5.29-2.97-6.94-1.98-1.64-4.52-2.47-7.62-2.47h-14.88Z"/>
  <path class="cls-1" d="M113.01,224.46h41.5l-11.43,10.02,16.44,40.41,1.88,5.32,13.94-33.67-4.07-9.4-10.34-12.69h41.35l-11.28,10.02,16.29,40.41,1.88,3.44,16.91-43.85-11.28-10.02h27.88l-9.24,9.71-28.97,70.48h-3.45l-22.24-50.43-22.24,50.43h-3.45l-29.76-67.5-10.34-12.69Z"/>
  <path class="cls-1" d="M271.19,303.08c-22.24,0-33.99-18.01-33.99-36.81,0-20.2,13.62-43.69,42.76-43.69,22.24,0,33.99,18.01,33.99,36.8,0,20.2-13.62,43.7-42.76,43.7ZM257.09,252.03c0,24.43,8.93,45.11,22.71,45.11,11.59,0,14.57-15.35,14.57-23.49,0-24.43-9.08-45.1-22.87-45.1-13,0-14.41,14.1-14.41,23.49Z"/>
  <path class="cls-1" d="M366.56,301.2l11.28-13.47v-34.77c0-12.06-1.72-19.73-13.78-19.73-5.79,0-11.75,2.51-16.76,9.24v45.26l11.28,13.47h-41.97l11.9-13.47v-42.29l-10.65-12.06,29.44-10.49v14.25c6.26-9.71,16.44-14.56,25.84-14.56,15.97,0,23.49,10.34,23.49,25.06v40.09l11.9,13.47h-41.97Z"/>
  <path class="cls-1" d="M465.38,287.26c-4.7,8.14-11.9,15.51-23.96,15.51-20.52,0-30.54-18.01-30.54-36.81,0-20.2,12.84-41.5,41.35-41.5h13.16v-13.47l-10.65-12.06,29.44-8.93v100.23l11.59,10.96-30.38,1.41v-15.35ZM465.38,239.5c-4.7-5.01-11.12-9.55-19.26-9.55-13.78,0-16.6,12.37-16.6,21.77,0,24.43,10.81,33.83,24.12,33.83,5.48,0,8.77-1.57,11.75-3.92v-42.13Z"/>
  <path class="cls-1" d="M564.83,257.04h-50.27c1.72,20.2,12.53,28.66,24.74,28.66,10.65,0,20.05-5.33,22.4-11.9l2.35.94c-5.64,14.25-16.76,28.66-35.4,28.66-20.52,0-32.11-18.32-32.11-37.12,0-20.2,12.53-43.38,38.06-43.38,18.64,0,30.07,12.53,30.23,33.67l.16.31h-.16v.16ZM544.62,250.93c0-16.76-6.73-23.34-13.63-23.34-11.9,0-16.76,14.25-16.76,23.65v1.1h30.38v-1.41Z"/>
  <path class="cls-1" d="M631.85,252.18c-6.89-16.44-16.13-21.93-23.34-21.93-10.81,0-10.81,7.83-10.81,23.81v33.67l14.56,13.47h-44.95l11.59-13.47v-51.21l-10.65-12.06h64.84v27.72h-1.25Z"/>
  <path class="cls-1" d="M16.56,301.3l29.17-79.29h11.2l29.28,79.29h-10.87l-8.43-24.17h-31.61l-8.54,24.17h-10.2ZM47.61,242.42l-9.43,26.61h25.95l-9.09-26.61-3.55-11.2h-.22c-1.41,4.43-2.63,8.17-3.66,11.2Z"/>
  <path class="cls-1" d="M93.41,233.1v-11.09h8.98v11.09h-8.98ZM93.41,301.3v-57.33h8.98v57.33h-8.98Z"/>
</svg>